<?xml version="1.0" standalone="no"?>
<!DOCTYPE svg PUBLIC "-//W3C//DTD SVG 20010904//EN"
 "http://www.w3.org/TR/2001/REC-SVG-20010904/DTD/svg10.dtd">
<svg version="1.0" xmlns="http://www.w3.org/2000/svg"
 width="647.000000pt" height="647.000000pt" viewBox="0 0 647.000000 647.000000"
 preserveAspectRatio="xMidYMid meet">
<metadata>
Created by potrace 1.11, written by Peter Selinger 2001-2013
</metadata>
<g transform="translate(0.000000,647.000000) scale(0.100000,-0.100000)"
fill="#000000" stroke="none">
<path d="M3055 5733 c-98 -169 -221 -382 -273 -473 -108 -187 -218 -378 -232
-400 -4 -8 -42 -73 -83 -145 -41 -71 -106 -184 -144 -250 -38 -66 -81 -140
-95 -165 -14 -25 -82 -143 -152 -262 -70 -120 -129 -224 -131 -230 -4 -10 255
-13 1287 -12 711 1 1294 2 1295 3 1 0 -12 25 -29 54 -17 28 -40 68 -51 87 -10
19 -36 64 -57 100 -21 36 -47 81 -58 100 -11 19 -68 118 -127 220 -59 102
-117 203 -130 225 -21 38 -177 307 -350 605 -43 74 -88 153 -100 175 -41 72
-387 670 -390 673 -1 1 -82 -136 -180 -305z"/>
<path d="M1290 2675 c-4 -5 -51 -86 -105 -180 -54 -93 -206 -357 -338 -585
-132 -228 -247 -428 -256 -445 -9 -16 -24 -41 -32 -55 -9 -14 -96 -164 -194
-335 -98 -171 -215 -373 -260 -451 -46 -77 -88 -151 -94 -162 l-12 -22 1339 0
1339 0 -1 1122 -1 1123 -688 0 c-449 0 -691 -3 -697 -10z"/>
<path d="M3789 2635 c0 -63 0 -2166 0 -2182 1 -10 276 -13 1342 -13 1072 0
1339 3 1331 13 -5 6 -20 30 -32 52 -55 99 -336 586 -371 643 -22 35 -39 65
-39 67 0 2 -27 49 -60 105 -33 56 -60 103 -60 105 0 1 -35 63 -78 136 -43 74
-115 197 -159 274 -83 143 -282 488 -416 720 l-75 130 -691 0 -691 0 -1 -50z"/>
</g>
</svg>
